# xmcd
#
# Track frame offsets:
#	150
#	16327
#	29857
#	45492
#	60663
#	74857
#	89692
#	105070
#	121141
#	138753
#	152282
#	166570
#	177560
#	194583
#	207814
#	223039
#	233348
#	245422
#	260267
#
# Disc length: 3659 seconds
#
# Revision: 1
# Processed by: cddbd v1.5.2PL0 Copyright (c) Steve Scherf et al.
# Submitted via: audiograbber 1.82.02
#
DISCID=fe0e4913
DTITLE=Various Artist  - Country Radio - September 2015
DYEAR=2015
DGENRE=Country
TTITLE0=Cam - Burning House (Radio Edit)
TTITLE1=Kenny Chesney - Save It For A Rainy Day
TTITLE2=Carrie Underwood - Little Toy Guns (Live Mix)
TTITLE3=Jerrod Niemann - Blue Bandana
TTITLE4=David Nail - Night's On Fire
TTITLE5=Rainey Qualley - Me and Johnny Cash
TTITLE6=Striking Matches - Miss Me More
TTITLE7=Clare Dunn - Move On
TTITLE8=Ashley Campbell - Remembering
TTITLE9=Kelsea Ballerini - Dibs
TTITLE10=Blackjack Billy - Why God Made Summertime
TTITLE11=Waterloo Revival - Bad For You
TTITLE12=Lacs (Ft. Josh Thompson) - Tonight On Repeat
TTITLE13=Easton Corbin - Yup
TTITLE14=Claire Petrie - Somewhere Off The Map
TTITLE15=John Anderson - I Work A Lot Better
TTITLE16=Brooke Hogan - Girlfriend
TTITLE17=Andy Grammer and Eli Young Band - Honey, I'm Good (PO Clean Edit)
TTITLE18=Allie Louise - Perfect Storm
EXTD=
EXTT0=
EXTT1=
EXTT2=
EXTT3=
EXTT4=
EXTT5=
EXTT6=
EXTT7=
EXTT8=
EXTT9=
EXTT10=
EXTT11=
EXTT12=
EXTT13=
EXTT14=
EXTT15=
EXTT16=
EXTT17=
EXTT18=
PLAYORDER=
